<svg width="146" height="146" viewBox="0 0 146 146" fill="none" xmlns="http://www.w3.org/2000/svg">
<path d="M110.249 0H35.7515C16.0065 0 0 16.0065 0 35.7515V110.249C0 129.994 16.0065 146 35.7515 146H110.249C129.994 146 146 129.994 146 110.249V35.7515C146 16.0065 129.994 0 110.249 0Z" fill="#E63946"/>
<path d="M23.3343 110.762C18.6406 117.701 26.2243 126.565 32.9312 121.981C36.9081 119.263 40.6249 116.183 44.0338 112.779C48.8966 107.908 53.1378 102.453 56.6605 96.5396C57.9636 94.3639 60.175 93.0365 62.5618 92.998L102.425 92.355C106.349 92.2908 109.497 88.8076 109.488 84.5388L109.463 72.6835C109.453 68.3748 106.232 64.8901 102.27 64.9044L43.991 65.1012C40.3196 65.114 37.2471 68.1366 36.8806 72.1074C36.0252 81.405 33.1508 96.0321 23.638 110.31L23.3343 110.762Z" fill="#EDF2F4"/>
<path d="M117.805 26.6094H43.6417C40.4124 26.6094 37.7946 29.2272 37.7946 32.4565V47.1164C37.7946 50.3457 40.4124 52.9635 43.6417 52.9635H117.805C121.034 52.9635 123.652 50.3457 123.652 47.1164V32.4565C123.652 29.2272 121.034 26.6094 117.805 26.6094Z" fill="#EDF2F4"/>
</svg>
